<svg xmlns="http://www.w3.org/2000/svg" viewBox="0 0 1200 900" width="1200" height="900">
  <defs>
    <radialGradient id="vignette" cx="50%" cy="42%" r="75%">
      <stop offset="0%" stop-color="#0d1520" stop-opacity="0"/>
      <stop offset="70%" stop-color="#06080d" stop-opacity="0.4"/>
      <stop offset="100%" stop-color="#010203" stop-opacity="0.95"/>
    </radialGradient>
    <radialGradient id="glowViolet" cx="50%" cy="40%" r="45%">
      <stop offset="0%" stop-color="#8b5cf6" stop-opacity="0.35"/>
      <stop offset="100%" stop-color="#8b5cf6" stop-opacity="0"/>
    </radialGradient>
    <radialGradient id="glowTeal" cx="20%" cy="80%" r="40%">
      <stop offset="0%" stop-color="#00c2b8" stop-opacity="0.22"/>
      <stop offset="100%" stop-color="#00c2b8" stop-opacity="0"/>
    </radialGradient>
    <radialGradient id="glowRed" cx="85%" cy="75%" r="40%">
      <stop offset="0%" stop-color="#ff2d55" stop-opacity="0.16"/>
      <stop offset="100%" stop-color="#ff2d55" stop-opacity="0"/>
    </radialGradient>
  </defs>

  <rect width="1200" height="900" fill="#060810"/>
  <rect width="1200" height="900" fill="url(#glowViolet)"/>
  <rect width="1200" height="900" fill="url(#glowTeal)"/>
  <rect width="1200" height="900" fill="url(#glowRed)"/>

  <g stroke="#8b5cf6" stroke-opacity="0.35" fill="none" stroke-width="1.2">
    <circle cx="600" cy="380" r="260"/>
    <circle cx="600" cy="380" r="200"/>
    <circle cx="600" cy="380" r="140"/>
    <polygon points="600,120 733,300 685,516 515,516 467,300"/>
    <polygon points="600,240 668,340 640,458 560,458 532,340"/>
  </g>

  <g stroke="#00c2b8" stroke-opacity="0.22" fill="none" stroke-width="1">
    <line x1="600" y1="120" x2="600" y2="640"/>
    <line x1="340" y1="380" x2="860" y2="380"/>
    <line x1="424" y1="204" x2="776" y2="556"/>
    <line x1="776" y1="204" x2="424" y2="556"/>
  </g>

  <g fill="#e6edf6" opacity="0.55">
    <circle cx="120" cy="90" r="1.4"/>
    <circle cx="220" cy="180" r="1"/>
    <circle cx="1040" cy="120" r="1.4"/>
    <circle cx="980" cy="240" r="1"/>
    <circle cx="150" cy="700" r="1.2"/>
    <circle cx="1080" cy="650" r="1.3"/>
    <circle cx="300" cy="60" r="1"/>
    <circle cx="900" cy="70" r="1.1"/>
    <circle cx="60" cy="450" r="1"/>
    <circle cx="1140" cy="420" r="1.2"/>
    <circle cx="500" cy="40" r="1"/>
    <circle cx="720" cy="820" r="1.1"/>
  </g>

  <g stroke="#ff2d55" stroke-opacity="0.28" fill="none" stroke-width="1.5">
    <circle cx="600" cy="380" r="8"/>
  </g>

  <rect width="1200" height="900" fill="url(#vignette)"/>
</svg>
